<svg width="150" height="23" viewBox="0 0 150 23" fill="none" xmlns="http://www.w3.org/2000/svg">
<mask id="mask0_3601_383" style="mask-type:alpha" maskUnits="userSpaceOnUse" x="0" y="0" width="150" height="23">
<path d="M0 17.6205H7.52827C11.486 17.6205 13.5939 15.5556 13.5939 12.7507C13.5939 10.1438 11.7269 8.56932 9.72223 8.47468V8.30261C11.5548 7.88963 12.9056 6.59046 12.9056 4.51696C12.9056 1.87561 10.944 0 7.05507 0H0V17.6205ZM3.72542 14.5747V9.8943H6.84858C8.63815 9.8943 9.74804 10.9267 9.74804 12.3808C9.74804 13.7058 8.84464 14.5747 6.76254 14.5747H3.72542ZM3.72542 7.37341V3.01131H6.55605C8.20797 3.01131 9.14578 3.86308 9.14578 5.13643C9.14578 6.53024 8.01008 7.37341 6.48722 7.37341H3.72542Z" fill="#333333"/>
<path d="M24.4239 11.9935C24.4325 13.7659 23.2193 14.6951 21.903 14.6951C20.5178 14.6951 19.623 13.7229 19.6144 12.1656V4.40503H15.9492V12.8195C15.9578 15.9082 17.7646 17.7924 20.4231 17.7924C22.4106 17.7924 23.8388 16.7686 24.4325 15.2199H24.5701V17.6204H28.0891V4.40503H24.4239V11.9935Z" fill="#333333"/>
<path d="M31.0208 17.6205H34.686V10.1438C34.686 8.51769 35.8733 7.39921 37.4908 7.39921C37.9984 7.39921 38.6953 7.48524 39.0395 7.59709V4.34488C38.7125 4.26744 38.2565 4.21582 37.8866 4.21582C36.4067 4.21582 35.1936 5.0762 34.7118 6.71091H34.5741V4.4051H31.0208V17.6205Z" fill="#333333"/>
<path d="M46.2731 22.8516C50.0501 22.8516 52.7345 21.1309 52.7345 17.7496V4.40522H49.0951V6.62499H48.9574C48.467 5.54952 47.3915 4.23315 45.1804 4.23315C42.2809 4.23315 39.8289 6.48733 39.8289 10.9871C39.8289 15.3836 42.2121 17.4313 45.189 17.4313C47.2969 17.4313 48.4756 16.373 48.9574 15.2803H49.1123V17.698C49.1123 19.5134 47.9508 20.2189 46.3591 20.2189C44.7416 20.2189 43.9242 19.5134 43.6231 18.7132L40.2332 19.1692C40.672 21.2513 42.7111 22.8516 46.2731 22.8516ZM46.3505 14.6781C44.5523 14.6781 43.5715 13.2499 43.5715 10.9699C43.5715 8.7243 44.5351 7.14982 46.3505 7.14982C48.1315 7.14982 49.1295 8.65547 49.1295 10.9699C49.1295 13.3015 48.1143 14.6781 46.3505 14.6781Z" fill="#333333"/>
<path d="M64.1258 11.9935C64.1344 13.7659 62.9213 14.6951 61.6049 14.6951C60.2197 14.6951 59.3249 13.7229 59.3163 12.1656V4.40503H55.6511V12.8195C55.6597 15.9082 57.4665 17.7924 60.1251 17.7924C62.1125 17.7924 63.5408 16.7686 64.1344 15.2199H64.2721V17.6204H67.791V4.40503H64.1258V11.9935Z" fill="#333333"/>
<path d="M76.7454 17.8787C80.0148 17.8787 82.2173 16.287 82.7336 13.8349L79.3437 13.6112C78.9737 14.6179 78.0273 15.1427 76.8056 15.1427C74.973 15.1427 73.8115 13.9296 73.8115 11.9593V11.9507H82.811V10.9441C82.811 6.45291 80.0922 4.23315 76.5991 4.23315C72.7102 4.23315 70.1893 6.99495 70.1893 11.0731C70.1893 15.2631 72.6758 17.8787 76.7454 17.8787ZM73.8115 9.67932C73.8889 8.17366 75.0332 6.96914 76.6593 6.96914C78.251 6.96914 79.3523 8.10483 79.3609 9.67932H73.8115Z" fill="#333333"/>
<path d="M85.2028 17.6205H88.868V10.1438C88.868 8.51769 90.0553 7.39921 91.6728 7.39921C92.1805 7.39921 92.8774 7.48524 93.2215 7.59709V4.34488C92.8946 4.26744 92.4386 4.21582 92.0686 4.21582C90.5888 4.21582 89.3756 5.0762 88.8938 6.71091H88.7562V4.4051H85.2028V17.6205Z" fill="#333333"/>
<path d="M100.241 17.6204H102.626V14.4156L103.799 12.984L106.888 17.6204H109.74L105.506 11.3926L109.69 6.34326H106.833L102.774 11.3155H102.626V6.34326H100.241V17.6204Z" fill="#333333"/>
<path d="M114.122 17.7857C116.214 17.7857 117.624 16.767 117.954 15.1976L115.785 15.0545C115.548 15.6987 114.942 16.0346 114.16 16.0346C112.987 16.0346 112.244 15.2582 112.244 13.9973V13.9917H118.004V13.3475C118.004 10.4732 116.264 9.05249 114.028 9.05249C111.539 9.05249 109.926 10.8201 109.926 13.4301C109.926 16.1117 111.517 17.7857 114.122 17.7857ZM112.244 12.5381C112.294 11.5744 113.026 10.8035 114.067 10.8035C115.085 10.8035 115.79 11.5304 115.796 12.5381H112.244Z" fill="#333333"/>
<path d="M121.88 12.7308C121.886 11.6405 122.535 11.0018 123.483 11.0018C124.424 11.0018 124.991 11.6185 124.986 12.6537V17.6205H127.332V12.2352C127.332 10.2639 126.175 9.05249 124.413 9.05249C123.158 9.05249 122.249 9.66921 121.869 10.6549H121.77V9.16262H119.535V17.6205H121.88V12.7308Z" fill="#333333"/>
<path d="M129.136 17.6205H136.245V15.7483H132.214V15.6877L136.102 10.6879V9.1626H129.279V11.0348H133.277V11.0954L129.136 16.2218V17.6205Z" fill="#333333"/>
<path d="M138.039 17.6206H140.384V9.16274H138.039V17.6206ZM139.217 8.07247C139.916 8.07247 140.489 7.53835 140.489 6.88309C140.489 6.23334 139.916 5.69922 139.217 5.69922C138.523 5.69922 137.951 6.23334 137.951 6.88309C137.951 7.53835 138.523 8.07247 139.217 8.07247Z" fill="#333333"/>
<path d="M146.118 17.7857C148.21 17.7857 149.62 16.767 149.95 15.1976L147.781 15.0545C147.544 15.6987 146.938 16.0346 146.157 16.0346C144.984 16.0346 144.24 15.2582 144.24 13.9973V13.9917H150V13.3475C150 10.4732 148.26 9.05249 146.024 9.05249C143.536 9.05249 141.922 10.8201 141.922 13.4301C141.922 16.1117 143.513 17.7857 146.118 17.7857ZM144.24 12.5381C144.29 11.5744 145.022 10.8035 146.063 10.8035C147.082 10.8035 147.786 11.5304 147.792 12.5381H144.24Z" fill="#333333"/>
</mask>
<g mask="url(#mask0_3601_383)">
</g>
<mask id="mask1_3601_383" style="mask-type:alpha" maskUnits="userSpaceOnUse" x="0" y="0" width="150" height="23">
<path d="M0 17.6205H7.52827C11.486 17.6205 13.5939 15.5556 13.5939 12.7507C13.5939 10.1438 11.7269 8.56932 9.72223 8.47468V8.30261C11.5548 7.88963 12.9056 6.59046 12.9056 4.51696C12.9056 1.87561 10.944 0 7.05507 0H0V17.6205ZM3.72542 14.5747V9.8943H6.84858C8.63815 9.8943 9.74804 10.9267 9.74804 12.3808C9.74804 13.7058 8.84464 14.5747 6.76254 14.5747H3.72542ZM3.72542 7.37341V3.01131H6.55605C8.20797 3.01131 9.14578 3.86308 9.14578 5.13643C9.14578 6.53024 8.01008 7.37341 6.48722 7.37341H3.72542Z" fill="#333333"/>
<path d="M24.4239 11.9935C24.4325 13.7659 23.2193 14.6951 21.903 14.6951C20.5178 14.6951 19.623 13.7229 19.6144 12.1656V4.40503H15.9492V12.8195C15.9578 15.9082 17.7646 17.7924 20.4231 17.7924C22.4106 17.7924 23.8388 16.7686 24.4325 15.2199H24.5701V17.6204H28.0891V4.40503H24.4239V11.9935Z" fill="#333333"/>
<path d="M31.0208 17.6205H34.686V10.1438C34.686 8.51769 35.8733 7.39921 37.4908 7.39921C37.9984 7.39921 38.6953 7.48524 39.0395 7.59709V4.34488C38.7125 4.26744 38.2565 4.21582 37.8866 4.21582C36.4067 4.21582 35.1936 5.0762 34.7118 6.71091H34.5741V4.4051H31.0208V17.6205Z" fill="#333333"/>
<path d="M46.2731 22.8516C50.0501 22.8516 52.7345 21.1309 52.7345 17.7496V4.40522H49.0951V6.62499H48.9574C48.467 5.54952 47.3915 4.23315 45.1804 4.23315C42.2809 4.23315 39.8289 6.48733 39.8289 10.9871C39.8289 15.3836 42.2121 17.4313 45.189 17.4313C47.2969 17.4313 48.4756 16.373 48.9574 15.2803H49.1123V17.698C49.1123 19.5134 47.9508 20.2189 46.3591 20.2189C44.7416 20.2189 43.9242 19.5134 43.6231 18.7132L40.2332 19.1692C40.672 21.2513 42.7111 22.8516 46.2731 22.8516ZM46.3505 14.6781C44.5523 14.6781 43.5715 13.2499 43.5715 10.9699C43.5715 8.7243 44.5351 7.14982 46.3505 7.14982C48.1315 7.14982 49.1295 8.65547 49.1295 10.9699C49.1295 13.3015 48.1143 14.6781 46.3505 14.6781Z" fill="#333333"/>
<path d="M64.1258 11.9935C64.1344 13.7659 62.9213 14.6951 61.6049 14.6951C60.2197 14.6951 59.3249 13.7229 59.3163 12.1656V4.40503H55.6511V12.8195C55.6597 15.9082 57.4665 17.7924 60.1251 17.7924C62.1125 17.7924 63.5408 16.7686 64.1344 15.2199H64.2721V17.6204H67.791V4.40503H64.1258V11.9935Z" fill="#333333"/>
<path d="M76.7454 17.8787C80.0148 17.8787 82.2173 16.287 82.7336 13.8349L79.3437 13.6112C78.9737 14.6179 78.0273 15.1427 76.8056 15.1427C74.973 15.1427 73.8115 13.9296 73.8115 11.9593V11.9507H82.811V10.9441C82.811 6.45291 80.0922 4.23315 76.5991 4.23315C72.7102 4.23315 70.1893 6.99495 70.1893 11.0731C70.1893 15.2631 72.6758 17.8787 76.7454 17.8787ZM73.8115 9.67932C73.8889 8.17366 75.0332 6.96914 76.6593 6.96914C78.251 6.96914 79.3523 8.10483 79.3609 9.67932H73.8115Z" fill="#333333"/>
<path d="M85.2028 17.6205H88.868V10.1438C88.868 8.51769 90.0553 7.39921 91.6728 7.39921C92.1805 7.39921 92.8774 7.48524 93.2215 7.59709V4.34488C92.8946 4.26744 92.4386 4.21582 92.0686 4.21582C90.5888 4.21582 89.3756 5.0762 88.8938 6.71091H88.7562V4.4051H85.2028V17.6205Z" fill="#333333"/>
<path d="M100.241 17.6204H102.626V14.4156L103.799 12.984L106.888 17.6204H109.74L105.506 11.3926L109.69 6.34326H106.833L102.774 11.3155H102.626V6.34326H100.241V17.6204Z" fill="#333333"/>
<path d="M114.122 17.7857C116.214 17.7857 117.624 16.767 117.954 15.1976L115.785 15.0545C115.548 15.6987 114.942 16.0346 114.16 16.0346C112.987 16.0346 112.244 15.2582 112.244 13.9973V13.9917H118.004V13.3475C118.004 10.4732 116.264 9.05249 114.028 9.05249C111.539 9.05249 109.926 10.8201 109.926 13.4301C109.926 16.1117 111.517 17.7857 114.122 17.7857ZM112.244 12.5381C112.294 11.5744 113.026 10.8035 114.067 10.8035C115.085 10.8035 115.79 11.5304 115.796 12.5381H112.244Z" fill="#333333"/>
<path d="M121.88 12.7308C121.886 11.6405 122.535 11.0018 123.483 11.0018C124.424 11.0018 124.991 11.6185 124.986 12.6537V17.6205H127.332V12.2352C127.332 10.2639 126.175 9.05249 124.413 9.05249C123.158 9.05249 122.249 9.66921 121.869 10.6549H121.77V9.16262H119.535V17.6205H121.88V12.7308Z" fill="#333333"/>
<path d="M129.136 17.6205H136.245V15.7483H132.214V15.6877L136.102 10.6879V9.1626H129.279V11.0348H133.277V11.0954L129.136 16.2218V17.6205Z" fill="#333333"/>
<path d="M138.039 17.6206H140.384V9.16274H138.039V17.6206ZM139.217 8.07247C139.916 8.07247 140.489 7.53835 140.489 6.88309C140.489 6.23334 139.916 5.69922 139.217 5.69922C138.523 5.69922 137.951 6.23334 137.951 6.88309C137.951 7.53835 138.523 8.07247 139.217 8.07247Z" fill="#333333"/>
<path d="M146.118 17.7857C148.21 17.7857 149.62 16.767 149.95 15.1976L147.781 15.0545C147.544 15.6987 146.938 16.0346 146.157 16.0346C144.984 16.0346 144.24 15.2582 144.24 13.9973V13.9917H150V13.3475C150 10.4732 148.26 9.05249 146.024 9.05249C143.536 9.05249 141.922 10.8201 141.922 13.4301C141.922 16.1117 143.513 17.7857 146.118 17.7857ZM144.24 12.5381C144.29 11.5744 145.022 10.8035 146.063 10.8035C147.082 10.8035 147.786 11.5304 147.792 12.5381H144.24Z" fill="#333333"/>
</mask>
<g mask="url(#mask1_3601_383)">
<path d="M153.122 -8.72217H-5.8147V28.1046H153.122V-8.72217Z" fill="url(#paint0_linear_3601_383)"/>
</g>
<defs>
<linearGradient id="paint0_linear_3601_383" x1="93.7501" y1="28.3333" x2="97.0834" y2="28.3333" gradientUnits="userSpaceOnUse">
<stop stop-color="#333333"/>
<stop offset="1" stop-color="#EB5757"/>
</linearGradient>
</defs>
</svg>
